<svg width="883" height="88" viewBox="0 0 883 88" fill="none" xmlns="http://www.w3.org/2000/svg">
<path d="M0 85.6861V1.68609H19.44V69.8461H61.56V85.6861H0Z" fill="white"/>
<path d="M111.696 87.1261C85.1756 87.1261 65.7356 68.6461 65.7356 43.6861C65.7356 18.7261 85.1756 0.246094 111.696 0.246094C138.096 0.246094 157.656 18.6061 157.656 43.6861C157.656 68.7661 138.096 87.1261 111.696 87.1261ZM111.696 70.5661C126.696 70.5661 137.976 59.6461 137.976 43.6861C137.976 27.7261 126.696 16.8061 111.696 16.8061C96.6956 16.8061 85.4156 27.7261 85.4156 43.6861C85.4156 59.6461 96.6956 70.5661 111.696 70.5661Z" fill="white"/>
<path d="M246.666 85.6861H225.786L209.586 62.2861H208.626H191.706V85.6861H172.266V1.68609H208.626C231.066 1.68609 245.106 13.3261 245.106 32.1661C245.106 44.7661 238.746 54.0061 227.826 58.6861L246.666 85.6861ZM225.426 32.1661C225.426 22.9261 219.426 17.5261 207.546 17.5261H191.706V46.8061H207.546C219.426 46.8061 225.426 41.2861 225.426 32.1661Z" fill="white"/>
<path d="M279.828 70.0861H325.548V85.6861H260.508V1.68609H323.988V17.2861H279.828V35.5261H318.828V50.6461H279.828V70.0861Z" fill="white"/>
<path d="M435.696 85.6861H417.456L417.336 35.2861L392.616 76.8061H383.856L359.256 36.3661V85.6861H341.016V1.68609H357.096L388.536 53.8861L419.496 1.68609H435.456L435.696 85.6861Z" fill="white"/>
<path d="M489.609 85.6861V1.68609H509.049V85.6861H489.609Z" fill="white"/>
<path d="M565.344 1.68609C587.784 1.68609 601.824 13.3261 601.824 32.1661C601.824 50.8861 587.784 62.5261 565.344 62.5261H548.424V85.6861H528.984V1.68609H565.344ZM564.264 46.6861C576.144 46.6861 582.144 41.2861 582.144 32.1661C582.144 22.9261 576.144 17.5261 564.264 17.5261H548.424V46.6861H564.264Z" fill="white"/>
<path d="M644.475 87.1261C631.155 87.1261 617.715 83.1661 610.275 77.4061L616.875 62.7661C623.955 67.9261 634.515 71.5261 644.595 71.5261C656.115 71.5261 660.795 67.6861 660.795 62.5261C660.795 46.8061 611.955 57.6061 611.955 26.4061C611.955 12.1261 623.475 0.246094 647.355 0.246094C657.915 0.246094 668.715 2.76609 676.515 7.68609L670.515 22.4461C662.715 18.0061 654.675 15.8461 647.235 15.8461C635.715 15.8461 631.275 20.1661 631.275 25.4461C631.275 40.9261 680.115 30.2461 680.115 61.0861C680.115 75.1261 668.475 87.1261 644.475 87.1261Z" fill="white"/>
<path d="M730.718 87.1261C706.838 87.1261 692.678 73.4461 692.678 48.7261V1.68609H712.118V48.0061C712.118 63.9661 719.078 70.5661 730.838 70.5661C742.718 70.5661 749.558 63.9661 749.558 48.0061V1.68609H768.758V48.7261C768.758 73.4461 754.598 87.1261 730.718 87.1261Z" fill="white"/>
<path d="M882.649 85.6861H864.409L864.289 35.2861L839.569 76.8061H830.809L806.209 36.3661V85.6861H787.969V1.68609H804.049L835.489 53.8861L866.449 1.68609H882.409L882.649 85.6861Z" fill="white"/>
</svg>
